# xmcd
#
# Track frame offsets:
#	150
#	16860
#	33340
#	48415
#	64405
#	77420
#	93100
#	107030
#	128882
#	141792
#	159745
#	176955
#	195110
#
# Disc length: 2826 seconds
#
# Revision: 0
# Processed by: cddbd v1.5.1PL0 Copyright (c) Steve Scherf et al.
# Submitted via: EasyCDDAExtractor 7.5.2.1
#
DISCID=a30b080d
DTITLE=Adelino Nascimento - Seresta
DYEAR=1900
DGENRE=Country
TTITLE0=Perdao Senhor
TTITLE1=Carente de Amor
TTITLE2=Porto Solidao
TTITLE3=Luz Negra
TTITLE4=Meus Segredos
TTITLE5=Gracas a Deus
TTITLE6=Boa Noite Amor da Minha Vida
TTITLE7=Sonhei com Voce
TTITLE8=Eu Nao Tive Infancia
TTITLE9=Jesus e Madalena
TTITLE10=Quero Dormir em Teus Bracos
TTITLE11=Devolva a Passagem
TTITLE12=Se Nao Me Queres
EXTD=
EXTT0=
EXTT1=
EXTT2=
EXTT3=
EXTT4=
EXTT5=
EXTT6=
EXTT7=
EXTT8=
EXTT9=
EXTT10=
EXTT11=
EXTT12=
PLAYORDER=
